<svg width="70" height="20" viewBox="0 0 1788 1382" fill="none" xmlns="http://www.w3.org/2000/svg">
<g clip-path="url(#clip0_110_749)">
<rect width="1788" height="1382" rx="100" fill="#2DA2B1"/>
<path d="M1514.05 332.228C1512.84 331.467 1511.62 331.153 1510.39 331.286C1150.56 379.847 529.954 462.882 171.23 511.162C170.699 511.239 170.229 511.675 169.903 512.393C169.578 513.112 169.419 514.066 169.454 515.087L246.387 1123.11C246.532 1127.24 247.699 1129.31 249.887 1129.34L1588.36 966.467C1588.66 966.469 1588.96 966.599 1589.24 966.849C1589.53 967.098 1589.78 967.46 1590 967.906C1590.21 968.351 1590.38 968.869 1590.48 969.418C1590.58 969.967 1590.61 970.532 1590.58 971.07L1587.78 1012.99C1587.58 1015.77 1586.73 1017.14 1585.22 1017.1L230.572 1172.41C230.382 1172.41 230.187 1172.34 230 1172.19C229.813 1172.05 229.638 1171.83 229.487 1171.57C229.335 1171.3 229.211 1170.98 229.122 1170.64C229.033 1170.3 202.629 1170.49 202.618 1170.13L115.166 467.6C115.136 466.696 141.627 465.296 141.911 464.663C142.196 464.031 142.607 463.652 143.071 463.593L1647.55 267.537C1648.59 267.373 1649.04 268.261 1648.9 270.201L1604.06 763.374C1603.97 764.577 1603.67 765.633 1603.21 766.384C1602.74 767.136 1573.96 766.75 1573.3 766.752L1530.94 758.604C1530.84 758.604 1530.73 758.562 1530.63 758.482C1530.53 758.402 1530.43 758.285 1530.35 758.138C1530.27 757.992 1530.2 757.819 1530.15 757.631C1530.1 757.442 1530.07 757.243 1530.07 757.046L1515.28 335.062C1515.26 334.454 1515.12 333.844 1514.9 333.329C1514.68 332.815 1514.38 332.427 1514.05 332.228Z" fill="white"/>
<path d="M576.538 985.809C544.433 989.701 515.032 987.978 488.334 980.638C461.637 973.298 439.336 960.348 421.432 941.789C403.944 923.178 393.04 899.539 388.717 870.871L502.544 857.069C506.183 873.128 513.329 884.954 523.98 892.547C534.581 899.723 547.595 902.376 563.022 900.505C578.866 898.584 590.945 893.524 599.258 885.323C607.521 876.706 610.869 865.935 609.301 853.009C607.987 842.169 603.147 833.659 594.783 827.481C586.835 821.253 577.163 816.502 565.767 813.23C554.787 809.908 539.145 806.516 518.841 803.055C489.427 797.737 465.224 791.787 446.234 785.205C427.244 778.623 410.249 767.568 395.251 752.04C380.253 736.513 371.086 714.99 367.749 687.471C362.795 646.611 373.729 612.919 400.552 586.398C427.324 559.46 464.476 543.109 512.008 537.345C560.373 531.481 600.773 538.429 633.208 558.188C665.591 577.531 685.328 607.714 692.418 648.739L576.715 662.768C574.162 648.693 567.611 638.276 557.061 631.517C546.46 624.341 533.654 621.663 518.644 623.483C505.719 625.05 495.725 629.858 488.662 637.907C481.549 645.538 478.776 655.817 480.343 668.742C482.062 682.918 490.073 693.159 504.376 699.463C518.679 705.767 540.563 711.787 570.027 717.522C599.542 723.674 623.587 730.066 642.16 736.698C661.15 743.28 678.119 754.127 693.067 769.237C708.014 784.348 717.081 805.037 720.266 831.305C723.299 856.322 719.592 879.829 709.143 901.826C699.112 923.773 682.738 942.259 660.021 957.282C637.305 972.306 609.477 981.815 576.538 985.809ZM852.571 952.974C833.808 955.249 817.724 951.699 804.318 942.325C791.278 932.483 783.773 919.431 781.801 903.17C779.779 886.492 783.923 871.817 794.232 859.144C804.958 846.42 819.703 838.921 838.466 836.646C856.811 834.421 872.504 838.23 885.543 848.072C899 857.864 906.739 871.098 908.761 887.776C910.733 904.037 906.355 918.529 895.629 931.253C885.269 943.509 870.916 950.749 852.571 952.974ZM1242.35 821.944L1078.49 841.812L1061.62 922.549L949.671 936.123L1055.29 477.817L1179.13 462.802L1391.22 882.585L1278.02 896.311L1242.35 821.944ZM1204.82 742.725L1130.92 588.59L1096.62 755.844L1204.82 742.725Z" fill="white"/>
<path d="M1597.07 819.346L1589.07 911.098C1589.04 911.433 1588.94 911.731 1588.78 911.944C1588.63 912.157 1588.43 912.273 1588.21 912.274L1519.48 905.845C1519.35 905.849 1519.21 905.808 1519.08 905.724C1518.96 905.64 1518.84 905.515 1518.74 905.358C1518.64 905.201 1518.56 905.015 1518.5 904.811C1518.44 904.607 1518.41 904.391 1518.41 904.175L1525.37 811.382C1525.37 810.994 1525.45 810.629 1525.61 810.361C1525.76 810.092 1525.98 809.939 1526.22 809.933L1596 817.402C1596.14 817.394 1596.29 817.442 1596.43 817.543C1596.58 817.644 1596.7 817.795 1596.81 817.984C1596.91 818.172 1596.99 818.394 1597.04 818.63C1597.08 818.867 1597.09 819.112 1597.07 819.346Z" fill="white"/>
</g>
<defs>
<clipPath id="clip0_110_749">
<rect width="1788" height="1382" rx="100" fill="white"/>
</clipPath>
</defs>
</svg>
