<svg width="3027" height="1603" viewBox="0 0 3027 1603" fill="none" xmlns="http://www.w3.org/2000/svg">
<path d="M2804.78 501.835C2802.65 500.924 2800.4 500.455 2798.03 500.428C2101.67 502.085 851.2 502.739 157.011 504.259C155.981 504.266 154.987 504.638 154.206 505.308C153.424 505.979 152.905 506.904 152.741 507.921L161.941 1120.73C161.286 1124.83 163.039 1127.04 167.2 1127.36L2753.47 1138.81C2754.03 1138.85 2754.57 1139.01 2755.06 1139.3C2755.54 1139.58 2755.95 1139.97 2756.26 1140.44C2756.57 1140.91 2756.76 1141.45 2756.83 1142C2756.89 1142.56 2756.83 1143.13 2756.64 1143.66L2741.84 1184.86C2740.83 1187.59 2738.9 1188.84 2736.04 1188.6L120.684 1167.56C120.32 1167.54 119.965 1167.44 119.641 1167.27C119.317 1167.1 119.032 1166.87 118.805 1166.59C118.577 1166.3 118.412 1165.97 118.32 1165.62C118.228 1165.27 118.211 1164.9 118.27 1164.54L110.381 456.676C110.527 455.775 110.983 454.957 111.669 454.367C112.354 453.776 113.223 453.453 114.119 453.456L3024.07 453.455C3026.09 453.427 3026.76 454.366 3026.06 456.273L2829.24 939.465C2828.8 940.646 2827.99 941.655 2826.94 942.34C2825.88 943.025 2824.63 943.35 2823.37 943.266L2740.65 926.775C2740.45 926.761 2740.26 926.706 2740.08 926.614C2739.91 926.521 2739.75 926.393 2739.63 926.237C2739.5 926.081 2739.41 925.9 2739.36 925.707C2739.31 925.515 2739.3 925.314 2739.34 925.117L2806.48 504.804C2806.58 504.198 2806.46 503.576 2806.15 503.037C2805.85 502.499 2805.36 502.075 2804.78 501.835Z" fill="white"/>
<path d="M415.211 1013.96C384.411 1013.91 356.82 1008.86 332.438 998.817C308.055 988.774 288.481 973.94 273.715 954.314C259.349 934.689 251.791 911.076 251.039 883.475L360.239 883.665C361.811 899.268 367.19 911.277 376.376 919.694C385.562 927.71 397.555 931.73 412.355 931.756C427.555 931.783 439.561 928.404 448.373 921.619C457.185 914.435 461.602 904.642 461.624 892.242C461.642 881.842 458.057 873.236 450.869 866.423C444.081 859.612 435.49 853.997 425.098 849.578C415.106 845.161 400.715 840.136 381.924 834.503C354.739 826.056 332.554 817.617 315.368 809.187C298.183 800.757 283.405 788.331 271.033 771.909C258.662 755.488 252.499 734.077 252.545 707.677C252.614 668.477 266.867 637.902 295.306 615.952C323.745 593.601 360.764 582.466 406.364 582.545C452.764 582.626 490.144 593.892 518.505 616.341C546.867 638.391 562.013 669.217 563.944 708.82L452.944 708.627C452.168 695.025 447.186 684.417 438 676.801C428.814 668.785 417.021 664.764 402.621 664.739C390.221 664.717 380.215 668.1 372.603 674.887C364.992 681.273 361.175 690.667 361.154 703.067C361.13 716.667 367.511 727.278 380.298 734.9C393.085 742.522 413.071 750.757 440.255 759.605C467.439 768.852 489.424 777.691 506.209 786.12C523.394 794.55 538.173 806.776 550.545 822.797C562.917 838.819 569.081 859.43 569.037 884.63C568.995 908.63 562.757 930.419 550.323 949.997C538.289 969.576 520.662 985.145 497.442 996.705C474.221 1008.26 446.811 1014.02 415.211 1013.96ZM735.294 589.119L734.559 1010.32L631.959 1010.14L632.694 588.94L735.294 589.119ZM961.304 1014.91C930.504 1014.86 902.913 1009.81 878.531 999.77C854.148 989.727 834.574 974.893 819.808 955.267C805.442 935.642 797.884 912.029 797.132 884.428L906.331 884.618C907.904 900.221 913.283 912.23 922.469 920.646C931.655 928.662 943.648 932.683 958.448 932.709C973.648 932.736 985.654 929.357 994.465 922.572C1003.28 915.387 1007.7 905.595 1007.72 893.195C1007.73 882.795 1004.15 874.189 996.962 867.376C990.174 860.564 981.583 854.949 971.191 850.531C961.199 846.114 946.808 841.089 928.017 835.456C900.832 827.008 878.647 818.57 861.461 810.14C844.276 801.71 829.498 789.284 817.126 772.862C804.755 756.441 798.592 735.03 798.638 708.63C798.707 669.43 812.96 638.855 841.398 616.904C869.838 594.554 906.857 583.419 952.457 583.498C998.857 583.579 1036.24 594.844 1064.6 617.294C1092.96 639.343 1108.11 670.17 1110.04 709.773L999.037 709.58C998.261 695.978 993.279 685.37 984.093 677.753C974.907 669.737 963.114 665.717 948.714 665.692C936.314 665.67 926.308 669.053 918.696 675.839C911.085 682.226 907.268 691.619 907.247 704.019C907.223 717.619 913.604 728.231 926.391 735.853C939.178 743.475 959.163 751.71 986.348 760.558C1013.53 769.805 1035.52 778.643 1052.3 787.073C1069.49 795.503 1084.27 807.728 1096.64 823.75C1109.01 839.772 1115.17 860.382 1115.13 885.582C1115.09 909.582 1108.85 931.372 1096.42 950.95C1084.38 970.529 1066.75 986.098 1043.53 997.658C1020.31 1009.22 992.904 1014.97 961.304 1014.91ZM1481.79 590.422L1481.64 672.622L1370.04 672.427L1369.45 1011.43L1266.85 1011.25L1267.44 672.248L1155.84 672.053L1155.99 589.853L1481.79 590.422ZM1794.87 937.769L1637.67 937.494L1612.34 1011.85L1504.94 1011.66L1658.08 590.729L1776.88 590.937L1928.54 1012.4L1819.94 1012.21L1794.87 937.769ZM1768.61 858.523L1716.68 704.232L1664.81 858.341L1768.61 858.523ZM2296.42 727.443C2296.38 751.843 2290.74 774.233 2279.51 794.614C2268.27 814.594 2251.04 830.764 2227.82 843.124C2204.6 855.483 2175.79 861.633 2141.39 861.573L2077.79 861.462L2077.53 1012.66L1974.93 1012.48L1975.66 591.283L2141.86 591.573C2175.46 591.632 2203.85 597.482 2227.03 609.122C2250.21 620.762 2267.58 636.793 2279.15 657.213C2290.71 677.633 2296.47 701.043 2296.42 727.443ZM2133.73 779.96C2153.33 779.994 2167.94 775.419 2177.56 766.236C2187.17 757.053 2191.99 744.061 2192.02 727.261C2192.05 710.461 2187.28 697.453 2177.69 688.236C2168.11 679.019 2153.52 674.394 2133.92 674.36L2078.12 674.262L2077.93 779.862L2133.73 779.96ZM2670.84 728.097C2670.79 752.497 2665.16 774.887 2653.92 795.267C2642.68 815.248 2625.46 831.418 2602.23 843.777C2579.01 856.137 2550.2 862.286 2515.8 862.226L2452.2 862.115L2451.94 1013.32L2349.34 1013.14L2350.07 591.937L2516.27 592.227C2549.87 592.285 2578.26 598.135 2601.44 609.775C2624.62 621.416 2642 637.446 2653.56 657.866C2665.12 678.286 2670.88 701.697 2670.84 728.097ZM2508.15 780.613C2527.75 780.647 2542.35 776.072 2551.97 766.889C2561.59 757.706 2566.41 744.714 2566.44 727.914C2566.47 711.114 2561.69 698.106 2552.11 688.889C2542.52 679.673 2527.93 675.047 2508.33 675.013L2452.53 674.916L2452.35 780.515L2508.15 780.613Z" fill="white"/>
<path d="M2802.08 993.867L2765.93 1083.78C2765.79 1084.1 2765.53 1084.39 2765.19 1084.58C2764.84 1084.77 2764.43 1084.86 2764.02 1084.83L2665.18 1072.95C2664.92 1072.93 2664.68 1072.87 2664.45 1072.77C2664.22 1072.67 2664.03 1072.53 2663.87 1072.36C2663.71 1072.2 2663.6 1072 2663.53 1071.79C2663.47 1071.58 2663.46 1071.36 2663.5 1071.15L2697.9 980.07C2697.97 979.684 2698.22 979.334 2698.58 979.088C2698.94 978.843 2699.4 978.72 2699.86 978.745L2800.46 991.798C2800.75 991.81 2801.03 991.878 2801.27 991.996C2801.52 992.115 2801.73 992.281 2801.89 992.482C2802.05 992.683 2802.15 992.913 2802.18 993.153C2802.22 993.394 2802.18 993.638 2802.08 993.867Z" fill="white"/>
</svg>
